<svg width="50" height="57" viewBox="0 0 50 57" fill="none" xmlns="http://www.w3.org/2000/svg">
<path d="M25.3268 10.6209L0 26.9608V56.2092H49.8366V26.9608L25.3268 10.6209Z" fill="#EDAB37"/>
<rect x="6.86273" width="35.9477" height="44.1176" fill="#E6E9ED"/>
<path d="M50 27.1242V56.3725H0V27.1242L25 43.3006L50 27.1242Z" fill="#F6BB42"/>
<path d="M25.0814 39.5425L0.326782 56.3726H49.6732L25.0814 39.5425Z" fill="#FFCE54"/>
<rect x="13.7255" y="5.88229" width="21.8954" height="16.3399" fill="#5D9CEC"/>
<path d="M21.2419 16.9935L24.6381 22.1406H17.8457L21.2419 16.9935Z" fill="#434A54"/>
<path d="M28.7582 14.0523L34.4185 22.1405H23.0979L28.7582 14.0523Z" fill="#656D78"/>
<circle cx="21.0784" cy="11.9281" r="2.12418" fill="#FFCE54"/>
<rect x="13.7255" y="26.1438" width="21.8954" height="1.63399" rx="0.816993" fill="#C4C4C4"/>
<rect x="14.0522" y="29.7385" width="21.8954" height="1.63399" rx="0.816993" fill="#C4C4C4"/>
<rect x="18.9542" y="33.6601" width="11.4379" height="1.63399" rx="0.816993" fill="#C4C4C4"/>
</svg>
