<svg width="31" height="30" viewBox="0 0 31 30" fill="none" xmlns="http://www.w3.org/2000/svg">
<path fill-rule="evenodd" clip-rule="evenodd" d="M15.7084 30C23.9926 30 30.7084 23.2843 30.7084 15C30.7084 6.71573 23.9926 0 15.7084 0C7.4241 0 0.708374 6.71573 0.708374 15C0.708374 23.2843 7.4241 30 15.7084 30ZM10.6315 7.92307H20.7853C21.8899 7.92307 22.7853 8.81851 22.7853 9.92307V20.0769C22.7853 21.1815 21.8899 22.0769 20.7853 22.0769H10.6315C9.52689 22.0769 8.63145 21.1815 8.63145 20.0769V9.92308C8.63145 8.81851 9.52689 7.92307 10.6315 7.92307ZM7.63145 9.92308C7.63145 8.26622 8.9746 6.92307 10.6315 6.92307H20.7853C22.4422 6.92307 23.7853 8.26622 23.7853 9.92307V20.0769C23.7853 21.7338 22.4422 23.0769 20.7853 23.0769H10.6315C8.9746 23.0769 7.63145 21.7338 7.63145 20.0769V9.92308ZM15.7084 17.4615C17.0678 17.4615 18.1699 16.3595 18.1699 15C18.1699 13.6405 17.0678 12.5385 15.7084 12.5385C14.3489 12.5385 13.2468 13.6405 13.2468 15C13.2468 16.3595 14.3489 17.4615 15.7084 17.4615ZM15.7084 18.4615C17.6201 18.4615 19.1699 16.9118 19.1699 15C19.1699 13.0882 17.6201 11.5385 15.7084 11.5385C13.7966 11.5385 12.2468 13.0882 12.2468 15C12.2468 16.9118 13.7966 18.4615 15.7084 18.4615ZM20.9776 10.3846C20.9776 10.7457 20.6849 11.0385 20.3238 11.0385C19.9627 11.0385 19.6699 10.7457 19.6699 10.3846C19.6699 10.0235 19.9627 9.73077 20.3238 9.73077C20.6849 9.73077 20.9776 10.0235 20.9776 10.3846ZM21.4776 10.3846C21.4776 11.0219 20.961 11.5385 20.3238 11.5385C19.6865 11.5385 19.1699 11.0219 19.1699 10.3846C19.1699 9.74736 19.6865 9.23077 20.3238 9.23077C20.961 9.23077 21.4776 9.74736 21.4776 10.3846Z" fill="white"/>
</svg>
