<svg width="31" height="30" viewBox="0 0 31 30" fill="none" xmlns="http://www.w3.org/2000/svg">
<path fill-rule="evenodd" clip-rule="evenodd" d="M15.7084 30C23.9926 30 30.7084 23.2843 30.7084 15C30.7084 6.71573 23.9926 0 15.7084 0C7.4241 0 0.708374 6.71573 0.708374 15C0.708374 23.2843 7.4241 30 15.7084 30ZM13.3148 12.4468V22.3404H15.7085V15.7979C16.4531 14.5745 18.4212 12.8617 20.3361 15.7979V22.3404H23.0489V14.6809C22.5702 13.883 21.134 11.649 19.3787 11.649C17.8321 11.6489 16.6985 12.929 15.9778 13.7428C15.8805 13.8526 15.7907 13.954 15.7085 14.0426V12.4468H13.3148ZM10.602 8.9362C10.602 9.81751 9.88756 10.5319 9.00626 10.5319C8.12495 10.5319 7.41051 9.81751 7.41051 8.9362C7.41051 8.0549 8.12495 7.34046 9.00626 7.34046C9.88756 7.34046 10.602 8.0549 10.602 8.9362ZM10.4425 12.4468V22.3404H7.72972V12.4468H10.4425Z" fill="white"/>
</svg>
