<svg width="31" height="30" viewBox="0 0 31 30" fill="none" xmlns="http://www.w3.org/2000/svg">
<path fill-rule="evenodd" clip-rule="evenodd" d="M15.7084 30C23.9926 30 30.7084 23.2843 30.7084 15C30.7084 6.71573 23.9926 0 15.7084 0C7.4241 0 0.708374 6.71573 0.708374 15C0.708374 23.2843 7.4241 30 15.7084 30ZM19.219 22.5V20.4256H16.6658C16.453 20.4256 15.9956 20.2341 15.8679 19.4681C15.7403 18.7022 15.8147 15.2128 15.8679 13.5639H19.219V11.649H15.8679V7.34046H13.7935V10.0532C13.2615 10.6383 11.8466 11.8724 11.0807 12.1277V13.5639H13.3147V19.4681C13.4211 20.6915 13.7615 22.6596 15.5488 22.6596C15.8593 22.6596 16.1615 22.6612 16.4509 22.6628C17.8266 22.6701 18.9113 22.6758 19.219 22.5Z" fill="white"/>
</svg>
