<svg width="30" height="30" viewBox="0 0 30 30" fill="none" xmlns="http://www.w3.org/2000/svg">
<path fill-rule="evenodd" clip-rule="evenodd" d="M15 30C23.2843 30 30 23.2843 30 15C30 6.71573 23.2843 0 15 0C6.71573 0 0 6.71573 0 15C0 23.2843 6.71573 30 15 30ZM7.383 8.93612C6.83071 8.93612 6.383 9.38384 6.383 9.93612V20.3829C6.383 20.9352 6.83071 21.3829 7.383 21.3829H22.9362C23.4885 21.3829 23.9362 20.9352 23.9362 20.3829V9.93612C23.9362 9.38384 23.4885 8.93612 22.9362 8.93612H7.383Z" fill="white"/>
<path d="M18.5106 15.4787L13.0053 18.6572L13.0053 12.3002L18.5106 15.4787Z" fill="white"/>
</svg>
