<svg width="68" height="57" viewBox="0 0 68 57" fill="none" xmlns="http://www.w3.org/2000/svg">
<path d="M61.9077 31.3812C56.1122 38.0221 33.9964 56.1343 33.4205 56.6667C33.4205 56.6667 17.5795 43.0418 5.039 31.3812C1.54544 26.7278 0 23.6801 0 16.7423C1.54544 10.4138 2.17128 8.15541 6.47871 4.76504C9.73884 2.19899 13.3068 0.633886 17.5795 0.374429C22.6366 0.0673414 26.2737 -0.462574 30.3296 2.34643C33.0386 4.2227 34.3864 5.3941 34.3864 5.3941C34.3864 5.3941 35.9318 4.31848 38.6364 2.34643C43.4659 -0.342661 46.75 0.0158942 49.8409 0.0158904C52.9318 0.0158866 58.1477 1.62936 61.9077 4.76504C64.9091 7.7247 68 11.5042 68 16.8677C67.4205 22.4252 67.7031 24.7404 61.9077 31.3812Z" fill="#ED5565"/>
<path d="M57.3034 13.5431H11.0787V36.8869C11.0787 36.8869 17.6435 43.0374 21.9663 46.8659C26.3697 50.7657 33.427 56.6668 33.427 56.6668C33.427 56.6668 41.2584 50.2517 45.6517 46.3313C53.8652 39.3817 57.3034 35.9959 57.3034 35.9959V13.5431Z" fill="#E6E9ED"/>
<rect x="15.663" y="33.5011" width="21.3933" height="1.78197" rx="0.890985" fill="#CCD1D9"/>
<rect x="27.8877" y="37.4213" width="21.3933" height="1.78197" rx="0.890985" fill="#CCD1D9"/>
<rect x="39.7303" y="33.5011" width="12.2247" height="1.78197" rx="0.890985" fill="#CCD1D9"/>
<rect x="16.0449" y="37.4213" width="9.55056" height="1.78197" rx="0.890985" fill="#CCD1D9"/>
<rect x="17.9551" y="41.3418" width="21.3933" height="1.78197" rx="0.890985" fill="#CCD1D9"/>
<rect x="27.5056" y="49.5388" width="11.8427" height="1.78197" rx="0.890985" fill="#CCD1D9"/>
<rect x="22.9213" y="45.6184" width="9.55056" height="1.78197" rx="0.890985" fill="#CCD1D9"/>
<rect x="35.9101" y="45.6184" width="8.4045" height="1.78197" rx="0.890985" fill="#CCD1D9"/>
<rect x="41.6404" y="41.3418" width="6.49438" height="1.78197" rx="0.890985" fill="#CCD1D9"/>
<rect x="16.4269" y="21.3835" width="35.1461" height="8.55346" fill="#ED5565"/>
<rect x="23.3033" y="24.5913" width="21.3933" height="1.78197" rx="0.890985" fill="#DA4453"/>
</svg>
