<svg width="172" height="38" viewBox="0 0 172 38" fill="none" xmlns="http://www.w3.org/2000/svg">
<path fill-rule="evenodd" clip-rule="evenodd" d="M4 4C1.79086 4 0 5.79086 0 8V23.6842C0 25.8933 1.79086 27.6842 4 27.6842L30.0833 27.6842L38 34V27.6842V8C38 5.79086 36.2091 4 34 4H4ZM10.2917 15.8421L15.8334 10.3158C16.4667 8.42106 14.5139 7.42106 13.4584 7.1579L4.75003 15.8421L13.4584 24.5263C15.9917 23.8947 16.0973 22.1579 15.8334 21.3684L10.2917 15.8421ZM22.2904 10.3158L27.832 15.8421L22.2904 21.3684C22.0265 22.1579 22.132 23.8947 24.6654 24.5263L33.3737 15.8421L24.6654 7.1579C23.6098 7.42106 21.657 8.42106 22.2904 10.3158Z" fill="#0B67DE"/>
<path d="M52.6465 6.67188L58.125 22.1406L63.5742 6.67188H69.3457V28H64.9365V22.1699L65.376 12.1064L59.6191 28H56.6016L50.8594 12.1211L51.2988 22.1699V28H46.9043V6.67188H52.6465ZM77.8564 28H73.4619V6.67188H77.8564V28ZM89.4141 28V6.67188H96.8848C99.4727 6.67188 101.436 7.16992 102.773 8.16602C104.111 9.15234 104.78 10.6025 104.78 12.5166C104.78 13.5615 104.512 14.4844 103.975 15.2852C103.438 16.0762 102.69 16.6572 101.733 17.0283C102.827 17.3018 103.687 17.8535 104.312 18.6836C104.946 19.5137 105.264 20.5293 105.264 21.7305C105.264 23.7812 104.609 25.334 103.301 26.3887C101.992 27.4434 100.127 27.9805 97.7051 28H89.4141ZM93.8086 18.7129V24.4697H97.5732C98.6084 24.4697 99.4141 24.2256 99.9902 23.7373C100.576 23.2393 100.869 22.5557 100.869 21.6865C100.869 19.7334 99.8584 18.7422 97.8369 18.7129H93.8086ZM93.8086 15.6074H97.0605C99.2773 15.5684 100.386 14.6846 100.386 12.9561C100.386 11.9893 100.103 11.2959 99.5361 10.876C98.9795 10.4463 98.0957 10.2314 96.8848 10.2314H93.8086V15.6074ZM112.969 24.4697H122.3V28H108.574V6.67188H112.969V24.4697ZM141.416 17.8193C141.416 19.9189 141.045 21.7598 140.303 23.3418C139.561 24.9238 138.496 26.1445 137.109 27.0039C135.732 27.8633 134.15 28.293 132.363 28.293C130.596 28.293 129.019 27.8682 127.632 27.0186C126.245 26.1689 125.171 24.958 124.409 23.3857C123.647 21.8037 123.262 19.9873 123.252 17.9365V16.8818C123.252 14.7822 123.628 12.9365 124.38 11.3447C125.142 9.74316 126.211 8.51758 127.588 7.66797C128.975 6.80859 130.557 6.37891 132.334 6.37891C134.111 6.37891 135.688 6.80859 137.065 7.66797C138.452 8.51758 139.521 9.74316 140.273 11.3447C141.035 12.9365 141.416 14.7773 141.416 16.8672V17.8193ZM136.963 16.8525C136.963 14.6162 136.562 12.917 135.762 11.7549C134.961 10.5928 133.818 10.0117 132.334 10.0117C130.859 10.0117 129.722 10.5879 128.921 11.7402C128.12 12.8828 127.715 14.5625 127.705 16.7793V17.8193C127.705 19.9971 128.105 21.6865 128.906 22.8877C129.707 24.0889 130.859 24.6895 132.363 24.6895C133.838 24.6895 134.971 24.1133 135.762 22.9609C136.553 21.7988 136.953 20.1094 136.963 17.8926V16.8525ZM161.484 25.3047C160.693 26.252 159.575 26.9893 158.13 27.5166C156.685 28.0342 155.083 28.293 153.325 28.293C151.479 28.293 149.858 27.8926 148.462 27.0918C147.075 26.2812 146.001 25.1094 145.239 23.5762C144.487 22.043 144.102 20.2412 144.082 18.1709V16.7207C144.082 14.5918 144.438 12.751 145.151 11.1982C145.874 9.63574 146.909 8.44434 148.257 7.62402C149.614 6.79395 151.201 6.37891 153.018 6.37891C155.547 6.37891 157.524 6.98437 158.95 8.19531C160.376 9.39648 161.221 11.1494 161.484 13.4541H157.207C157.012 12.2334 156.577 11.3398 155.903 10.7734C155.239 10.207 154.321 9.92383 153.149 9.92383C151.655 9.92383 150.518 10.4854 149.736 11.6084C148.955 12.7314 148.56 14.4014 148.55 16.6182V17.9805C148.55 20.2168 148.975 21.9062 149.824 23.0488C150.674 24.1914 151.919 24.7627 153.56 24.7627C155.21 24.7627 156.387 24.4111 157.09 23.708V20.0312H153.091V16.7939H161.484V25.3047Z" fill="black"/>
</svg>
